<svg width="200" height="200" viewBox="0 0 200 200" fill="none" xmlns="http://www.w3.org/2000/svg">
<path d="M144.257 187.5C144.119 187.5 143.98 187.5 143.842 187.469C143.426 187.406 143.025 187.282 142.671 187.064C142.456 186.939 142.271 186.799 142.086 186.627L23.359 101.894C22.8354 101.52 22.4504 101.005 22.2194 100.429C22.1732 100.304 22.127 100.179 22.0962 100.039C21.9423 99.4312 21.9731 98.761 22.1886 98.1376L42.4385 43.6381C42.4385 43.6381 42.4847 43.5134 42.5155 43.4511C42.7002 43.0303 42.9774 42.6563 43.3008 42.3602C43.4394 42.2355 43.5934 42.1108 43.7628 42.0173C43.9322 41.9082 44.117 41.8303 44.3018 41.7524L120.512 12.7026C120.62 12.6558 120.728 12.6247 120.835 12.5935C121.066 12.5312 121.313 12.5 121.559 12.5C121.944 12.5 122.344 12.5623 122.714 12.687C122.714 12.687 122.837 12.7338 122.899 12.7649L176.318 36.1575C176.318 36.1575 176.395 36.1887 176.441 36.2198C177.011 36.5004 177.473 36.9367 177.781 37.451C177.858 37.5913 177.935 37.7315 177.997 37.8718C178.243 38.4484 178.32 39.103 178.182 39.7575C178.182 39.7575 178.182 39.7887 178.182 39.8043L147.353 184.882C147.322 185.022 147.291 185.147 147.245 185.287C147.106 185.708 146.891 186.082 146.613 186.393C146.367 186.69 146.059 186.923 145.705 187.11C145.381 187.282 145.027 187.406 144.658 187.453C144.504 187.469 144.35 187.484 144.211 187.484L144.257 187.5ZM95.165 109.39L139.345 171.744L129.259 96.548L95.165 109.39ZM37.6493 104.138L130.444 170.388L88.2508 110.808L37.6493 104.153V104.138ZM135.264 93.1194L144.966 165.448L169.188 51.4772L135.264 93.1194ZM50.523 46.3654L91.2998 103.92L128.381 89.9557L119.172 21.2118L50.523 46.3654ZM29.6418 96.548L83.1537 103.592L46.3344 51.6019L29.6418 96.548ZM125.794 22.3963L134.094 84.3608L169.835 40.4744L125.778 22.3807L125.794 22.3963Z" fill="url(#paint0_linear_1432_4392)"/>
<defs>
<linearGradient id="paint0_linear_1432_4392" x1="22.0038" y1="99.9922" x2="178.305" y2="99.9922" gradientUnits="userSpaceOnUse">
<stop stop-color="#8A38FE"/>
<stop offset="0.510417" stop-color="#823FFE"/>
<stop offset="1" stop-color="#4E78FE"/>
</linearGradient>
</defs>
</svg>
