<svg width="200" height="200" viewBox="0 0 200 200" fill="none" xmlns="http://www.w3.org/2000/svg">
<path d="M166.667 174.896H33.3335C30.0002 174.896 27.0835 173.646 24.5835 171.146C22.0835 168.646 20.8335 165.729 20.8335 162.396V37.6042C20.8335 34.2709 22.0835 31.3542 24.5835 28.8542C27.0835 26.3542 30.0002 25.1042 33.3335 25.1042H166.667C170 25.1042 172.917 26.3542 175.417 28.8542C177.917 31.3542 179.167 34.2709 179.167 37.6042V162.396C179.167 165.729 177.917 168.646 175.417 171.146C172.917 173.646 170 174.896 166.667 174.896ZM33.3335 66.9793H166.667V37.6042H33.3335V66.9793ZM64.5835 79.4793H33.3335V162.396H64.5835V79.4793ZM135.417 79.4793V162.396H166.667V79.4793H135.417ZM122.917 79.4793H77.0835V162.396H122.917V79.4793Z" fill="url(#paint0_linear_1439_22969)"/>
<defs>
<linearGradient id="paint0_linear_1439_22969" x1="20.8374" y1="99.9934" x2="179.222" y2="99.9934" gradientUnits="userSpaceOnUse">
<stop stop-color="#4E78FE"/>
<stop offset="0.42" stop-color="#2D9CFE"/>
<stop offset="1" stop-color="#21AAFF"/>
</linearGradient>
</defs>
</svg>
