<svg width="200" height="200" viewBox="0 0 200 200" fill="none" xmlns="http://www.w3.org/2000/svg">
<path d="M27.4993 166.667V154.167H53.1244L50.2077 151.25C41.8744 142.917 35.8674 134.479 32.1868 125.937C28.5063 117.396 26.666 109.028 26.666 100.833C26.666 85.6944 31.0063 72.1527 39.6868 60.2083C48.3674 48.2638 59.791 39.9999 73.9577 35.4166V48.3333C63.4021 52.4999 54.9646 59.3749 48.6452 68.9583C42.3257 78.5416 39.166 89.1666 39.166 100.833C39.166 108.055 40.3813 114.896 42.8118 121.354C45.2424 127.812 49.3744 133.68 55.2077 138.958L61.4577 144.583V120.208H73.9577V166.667H27.4993ZM173.124 97.0833H160.624C160.347 89.9999 158.958 83.4374 156.458 77.3958C153.958 71.3541 150.069 65.9027 144.791 61.0416L138.541 55.4166V79.7916H126.041V33.3333H172.499V45.8333H146.666L149.791 48.7499C157.847 56.3888 163.68 64.3749 167.291 72.7083C170.902 81.0416 172.847 89.1666 173.124 97.0833ZM144.999 191.667L143.958 181.667C141.18 180.833 138.333 179.618 135.416 178.021C132.499 176.424 130.138 174.653 128.333 172.708L119.583 176.875L112.291 165.625L120.208 159.375C119.513 156.18 119.166 153.299 119.166 150.729C119.166 148.16 119.513 145.278 120.208 142.083L112.291 135.833L119.583 124.375L128.333 128.542C130.138 126.875 132.499 125.208 135.416 123.542C138.333 121.875 141.18 120.625 143.958 119.792L144.999 109.583H157.499L158.749 119.792C161.527 120.625 164.374 121.875 167.291 123.542C170.208 125.208 172.569 126.875 174.374 128.542L183.124 124.375L190.416 135.833L182.499 142.083C183.194 145.278 183.541 148.16 183.541 150.729C183.541 153.299 183.194 156.18 182.499 159.375L190.416 165.625L183.124 176.875L174.374 172.708C172.569 174.653 170.208 176.424 167.291 178.021C164.374 179.618 161.527 180.833 158.749 181.667L157.499 191.667H144.999ZM151.249 171.875C157.36 171.875 162.43 169.861 166.458 165.833C170.485 161.805 172.499 156.736 172.499 150.625C172.499 144.514 170.485 139.444 166.458 135.417C162.43 131.389 157.36 129.375 151.249 129.375C145.138 129.375 140.069 131.389 136.041 135.417C132.013 139.444 129.999 144.514 129.999 150.625C129.999 156.736 132.013 161.805 136.041 165.833C140.069 169.861 145.138 171.875 151.249 171.875Z" fill="url(#paint0_linear_1439_22967)"/>
<defs>
<linearGradient id="paint0_linear_1439_22967" x1="26.6701" y1="112.493" x2="190.473" y2="112.493" gradientUnits="userSpaceOnUse">
<stop stop-color="#21AAFF"/>
<stop offset="1" stop-color="#33FF66"/>
</linearGradient>
</defs>
</svg>
