<svg width="200" height="200" viewBox="0 0 200 200" fill="none" xmlns="http://www.w3.org/2000/svg">
<path d="M59.7671 50.6249C56.8668 50.6249 54.4097 51.6401 52.3958 53.6703C50.3819 55.7005 49.375 58.1658 49.375 61.0662C49.375 63.9664 50.3901 66.4235 52.4204 68.4374C54.4506 70.4513 56.9158 71.4583 59.8163 71.4583C62.7165 71.4583 65.1736 70.4431 67.1875 68.4128C69.2014 66.3827 70.2083 63.9174 70.2083 61.017C70.2083 58.1167 69.1932 55.6596 67.1629 53.6458C65.1328 51.6319 62.6675 50.6249 59.7671 50.6249ZM59.7671 136.875C56.8668 136.875 54.4097 137.89 52.3958 139.92C50.3819 141.95 49.375 144.416 49.375 147.316C49.375 150.216 50.3901 152.674 52.4204 154.687C54.4506 156.701 56.9158 157.708 59.8163 157.708C62.7165 157.708 65.1736 156.693 67.1875 154.663C69.2014 152.633 70.2083 150.167 70.2083 147.267C70.2083 144.367 69.1932 141.91 67.1629 139.896C65.1328 137.882 62.6675 136.875 59.7671 136.875ZM32.0833 25.2083H167.708C169.931 25.2083 171.701 25.868 173.021 27.1874C174.34 28.5069 175 30.2994 175 32.5651V88.5416C175 90.9617 174.34 92.9903 173.021 94.6274C171.701 96.2647 169.931 97.0833 167.708 97.0833H32.0833C30 97.0833 28.2986 96.2647 26.9792 94.6274C25.6597 92.9903 25 90.9617 25 88.5416V32.5651C25 30.2994 25.6597 28.5069 26.9792 27.1874C28.2986 25.868 30 25.2083 32.0833 25.2083ZM37.5 37.7083V84.5833H162.5V37.7083H37.5ZM32.0833 111.25H166.875C168.958 111.25 170.833 112.118 172.5 113.854C174.167 115.59 175 117.571 175 119.797V174.792C175 177.569 174.167 179.687 172.5 181.146C170.833 182.604 168.958 183.333 166.875 183.333H33.125C30.9028 183.333 28.9931 182.604 27.3958 181.146C25.7986 179.687 25 177.569 25 174.792V119.797C25 117.571 25.6597 115.59 26.9792 113.854C28.2986 112.118 30 111.25 32.0833 111.25ZM37.5 123.75V170.833H162.5V123.75H37.5Z" fill="url(#paint0_linear_1432_4393)"/>
<defs>
<linearGradient id="paint0_linear_1432_4393" x1="25.0037" y1="104.264" x2="175.053" y2="104.264" gradientUnits="userSpaceOnUse">
<stop stop-color="#8A38FE"/>
<stop offset="0.510417" stop-color="#823FFE"/>
<stop offset="1" stop-color="#4E78FE"/>
</linearGradient>
</defs>
</svg>
